# File created by Blade
# Date/Time:  Thu Jan 15 19:03:44 2015
#---------------------------------------------------------
:version 1.10
:name HOM
:units
  mass 1.0
  length 1.000000
  angle deg
:documentation
     Acclaim Skeleton File
:root
   axis xyz
   order TX TY TZ RX RY RZ
   position 0.000000 0.000000 0.000000
   orientation 0 0 0
:bonedata
   begin
      id 1
      name Spine_dum
      direction 0.000000 1.000000 0.000000
      length 4.354460
      axis 0.0 0.0 0.0 xyz
   end
   begin
      id 2
      name LeftUpLeg_dum
      direction 1.000000 0.000000 0.000000
      length 4.291077
      axis 0.0 0.0 0.0 xyz
   end
   begin
      id 3
      name RightUpLeg_dum
      direction -1.000000 0.000000 0.000000
      length 4.291077
      axis 0.0 0.0 0.0 xyz
   end
   begin
      id 4
      name Spine
      direction 0.000000 1.000000 0.000000
      length 0.000000
      axis 0.0 0.0 0.0 xyz
      dof rx ry rz
   end
   begin
      id 5
      name Spine_dum1
      direction 0.000000 1.000000 0.000000
      length 16.581769
      axis 0.0 0.0 0.0 xyz
   end
   begin
      id 6
      name Spine_dum2
      direction 0.000000 1.000000 0.000000
      length 12.903700
      axis 0.0 0.0 0.0 xyz
   end
   begin
      id 7
      name Spine_dum3
      direction 0.000000 1.000000 0.000000
      length 12.903700
      axis 0.0 0.0 0.0 xyz
   end
   begin
      id 8
      name Head
      direction 0.000000 1.000000 0.000000
      length 4.527550
      axis 0.0 0.0 0.0 xyz
      dof rx ry rz
   end
   begin
      id 9
      name LeftShoulder
      direction 1.000000 0.000000 0.000000
      length 6.942033
      axis 0.0 0.0 -90.0 xyz
      dof rx ry rz
   end
   begin
      id 10
      name LeftArm
      direction 1.000000 0.000000 0.000000
      length 11.010391
      axis 0.0 0.0 -90.0 xyz
      dof rx ry rz
   end
   begin
      id 11
      name LeftForeArm
      direction 1.000000 0.000000 0.000000
      length 8.054994
      axis 0.0 0.0 -90.0 xyz
      dof rz ry rx
   end
   begin
      id 12
      name LeftHand
      direction 0.000000 0.000000 0.000000
      length 0.000000
      axis 0.0 0.0 -90.0 xyz
      dof rx ry rz
   end
   begin
      id 13
      name LeftHand_dum1
      direction 0.000000 0.000000 0.000000
      length 0.000000
      axis 0.0 0.0 -90.0 xyz
   end
   begin
      id 14
      name LeftHand_dum2
      direction 1.000000 0.000000 0.000000
      length 3.937000
      axis 0.0 0.0 -90.0 xyz
   end
   begin
      id 15
      name LeftHandThumb1
      direction 0.000000 0.000000 1.000000
      length 3.937000
      axis 0.0 0.0 -90.0 xyz
      dof rx ry rz
   end
   begin
      id 16
      name RightShoulder
      direction -1.000000 0.000000 0.000000
      length 6.942033
      axis 0.0 0.0 90.0 xyz
      dof rx ry rz
   end
   begin
      id 17
      name RightArm
      direction -1.000000 0.000000 0.000000
      length 11.010391
      axis 0.0 0.0 90.0 xyz
      dof rx ry rz
   end
   begin
      id 18
      name RightForeArm
      direction -1.000000 0.000000 0.000000
      length 8.054994
      axis 0.0 0.0 90.0 xyz
      dof rz ry rx
   end
   begin
      id 19
      name RightHand
      direction 0.000000 0.000000 0.000000
      length 0.000000
      axis 0.0 0.0 90.0 xyz
      dof rx ry rz
   end
   begin
      id 20
      name RightHand_dum1
      direction 0.000000 0.000000 0.000000
      length 0.000000
      axis 0.0 0.0 90.0 xyz
   end
   begin
      id 21
      name RightHand_dum2
      direction -1.000000 0.000000 0.000000
      length 3.937000
      axis 0.0 0.0 90.0 xyz
   end
   begin
      id 22
      name RightHandThumb1
      direction 0.000000 0.000000 1.000000
      length 3.937000
      axis 0.0 0.0 90.0 xyz
      dof rx ry rz
   end
   begin
      id 23
      name LeftUpLeg
      direction 0.000000 -1.000000 0.000000
      length 17.039958
      axis 0.0 0.0 0.0 xyz
      dof rx ry rz
   end
   begin
      id 24
      name LeftLeg
      direction 0.000000 -1.000000 0.000000
      length 16.939743
      axis 0.0 0.0 0.0 xyz
      dof rx ry rz
   end
   begin
      id 25
      name LeftFoot
      direction 0.000000 -0.258819 0.965926
      length 5.235044
      axis 15.0 0.0 0.0 xyz
      dof rx ry rz
   end
   begin
      id 26
      name LeftToeBase
      direction 0.000000 0.000000 1.000000
      length 2.952750
      axis 0.0 0.0 0.0 xyz
      dof rx ry rz
   end
   begin
      id 27
      name RightUpLeg
      direction 0.000000 -1.000000 0.000000
      length 17.039958
      axis 0.0 0.0 0.0 xyz
      dof rx ry rz
   end
   begin
      id 28
      name RightLeg
      direction 0.000000 -1.000000 0.000000
      length 16.939743
      axis 0.0 0.0 0.0 xyz
      dof rx ry rz
   end
   begin
      id 29
      name RightFoot
      direction 0.000000 -0.258819 0.965926
      length 5.235044
      axis 15.0 0.0 0.0 xyz
      dof rx ry rz
   end
   begin
      id 30
      name RightToeBase
      direction 0.000000 0.000000 1.000000
      length 2.952750
      axis 0.0 0.0 0.0 xyz
      dof rx ry rz
   end
:hierarchy
   begin
      root Spine_dum LeftUpLeg_dum RightUpLeg_dum
      Spine_dum Spine
      LeftUpLeg_dum LeftUpLeg
      RightUpLeg_dum RightUpLeg
      Spine Spine_dum1 Spine_dum2 Spine_dum3
      Spine_dum1 Head
      Spine_dum2 LeftShoulder
      Spine_dum3 RightShoulder
      LeftShoulder LeftArm
      LeftArm LeftForeArm
      LeftForeArm LeftHand
      LeftHand LeftHand_dum1 LeftHand_dum2
      LeftHand_dum1 LeftHandThumb1
      RightShoulder RightArm
      RightArm RightForeArm
      RightForeArm RightHand
      RightHand RightHand_dum1 RightHand_dum2
      RightHand_dum1 RightHandThumb1
      LeftUpLeg LeftLeg
      LeftLeg LeftFoot
      LeftFoot LeftToeBase
      RightUpLeg RightLeg
      RightLeg RightFoot
      RightFoot RightToeBase
   end

# File created by Blade
# Date/Time:  Thu Jan 15 19:03:33 2015
# Frame Rate: 120.000 fps
#------------------------------------------------------
:FULLY-SPECIFIED
:DEGREES
1
root 2.281146 35.571163 -12.090288 -173.459616 4.785294 -179.625038
Spine -12.072627 10.514235 -2.559005
Head 2.166049 -3.539152 8.938945
LeftShoulder -9.241285 11.675814 11.531718
LeftArm 17.462167 -48.504029 -19.344249
LeftForeArm -0.000000 11.629770 1.286688
LeftHand 1.315285 -0.000000 -0.465967
LeftHandThumb1 -26.253704 33.147579 0.000000
RightShoulder -21.400405 0.479838 -16.800956
RightArm 1.143302 39.135357 19.362825
RightForeArm -0.000000 -44.119497 17.629411
RightHand -4.762674 -0.000000 2.550783
RightHandThumb1 -24.326973 -32.862282 -0.000000
LeftUpLeg 2.134832 13.927205 -2.544213
LeftLeg -3.700007 -0.000000 0.000000
LeftFoot -18.324145 23.345434 -11.083680
LeftToeBase 20.202576 -0.000000 -0.000000
RightUpLeg 0.523593 -5.554091 -0.389912
RightLeg -2.711251 -0.000000 0.000000
RightFoot -15.891922 -28.101321 7.365564
RightToeBase 20.790913 -0.000000 -0.000000
2
root 2.280280 35.571430 -12.086804 -173.457440 4.759830 -179.633154
Spine -11.983571 10.543672 -2.547954
Head 1.988680 -3.538343 8.869009
LeftShoulder -9.306336 11.842759 11.405714
LeftArm 17.436566 -48.552841 -19.622738
LeftForeArm -0.000000 11.434935 1.699722
LeftHand 1.366583 0.000000 0.206271
LeftHandThumb1 -26.253704 33.147579 0.000000
RightShoulder -21.423442 0.391667 -16.858963
RightArm 0.589060 39.338952 19.534406
RightForeArm -0.000000 -43.830271 18.223322
RightHand -4.708883 -0.000000 1.741177
RightHandThumb1 -24.326973 -32.862282 -0.000000
LeftUpLeg 2.126034 13.883141 -2.551850
LeftLeg -3.702733 -0.000000 0.000000
LeftFoot -18.316056 23.356613 -11.091901
LeftToeBase 20.191031 -0.000000 -0.000000
RightUpLeg 0.521792 -5.590163 -0.395041
RightLeg -2.719954 -0.000000 0.000000
RightFoot -15.873409 -28.100005 7.336705
RightToeBase 20.770574 -0.000000 -0.000000
3
root 2.280123 35.571428 -12.082488 -173.455947 4.748671 -179.633922
Spine -11.877928 10.560166 -2.508951
Head 1.793796 -3.482931 8.756972
LeftShoulder -9.421935 11.933030 11.298550
LeftArm 17.333062 -48.371203 -19.938793
LeftForeArm 0.000000 10.996980 2.208058
LeftHand 1.456418 0.000000 0.877123
LeftHandThumb1 -26.253704 33.147579 0.000000
RightShoulder -21.424531 0.302025 -16.948180
RightArm -0.008476 39.513416 19.762288
RightForeArm -0.000000 -43.570044 18.929863
RightHand -4.934844 -0.000000 0.889355
RightHandThumb1 -24.326973 -32.862282 -0.000000
LeftUpLeg 2.111774 13.862466 -2.553682
LeftLeg -3.695686 -0.000000 0.000000
LeftFoot -18.316240 23.367024 -11.087333
LeftToeBase 20.182384 -0.000000 -0.000000
RightUpLeg 0.518722 -5.572017 -0.393192
RightLeg -2.728426 -0.000000 0.000000
RightFoot -15.864816 -28.125861 7.339483
RightToeBase 20.840813 -0.000000 -0.000000
4
root 2.279292 35.571096 -12.076881 -173.456725 4.727392 -179.636155
Spine -11.769944 10.578585 -2.468242
Head 1.606274 -3.395529 8.663889
LeftShoulder -9.509227 12.030143 11.184731
LeftArm 17.206022 -48.166901 -20.280336
LeftForeArm -0.000000 10.480010 2.729701
LeftHand 1.405048 0.000000 1.673498
LeftHandThumb1 -26.253704 33.147579 0.000000
RightShoulder -21.418388 0.169273 -17.013879
RightArm -0.646856 39.657215 20.018808
RightForeArm -0.000000 -43.069673 19.732247
RightHand -5.183554 0.000000 0.174967
RightHandThumb1 -24.326973 -32.862282 -0.000000
LeftUpLeg 2.102042 13.833897 -2.556863
LeftLeg -3.699215 -0.000000 0.000000
LeftFoot -18.304994 23.389322 -11.054579
LeftToeBase 20.196201 -0.000000 -0.000000
RightUpLeg 0.514425 -5.589709 -0.391471
RightLeg -2.735090 -0.000000 0.000000
RightFoot -15.879030 -28.145023 7.356287
RightToeBase 20.807691 -0.000000 -0.000000
5
root 2.278954 35.571877 -12.070953 -173.455669 4.706022 -179.640760
Spine -11.645449 10.621734 -2.441685
Head 1.371917 -3.366124 8.564053
LeftShoulder -9.623612 12.032985 11.139027
LeftArm 17.043766 -47.626034 -20.701881
LeftForeArm -0.000000 9.831854 3.291204
LeftHand 1.569263 -0.000000 2.660816
LeftHandThumb1 -26.253704 33.147579 0.000000
RightShoulder -21.481366 0.014821 -17.037313
RightArm -1.248870 39.638075 20.298207
RightForeArm -0.000000 -42.171040 20.447204
RightHand -5.389120 -0.000000 -1.121440
RightHandThumb1 -24.326973 -32.862282 -0.000000
LeftUpLeg 2.078286 13.832441 -2.562241
LeftLeg -3.682420 -0.000000 0.000000
LeftFoot -18.290163 23.385303 -11.048526
LeftToeBase 20.061213 -0.000000 -0.000000
RightUpLeg 0.508501 -5.580100 -0.394634
RightLeg -2.736926 -0.000000 0.000000
RightFoot -15.848433 -28.173446 7.310263
RightToeBase 20.742509 -0.000000 -0.000000
